<svg width="45" height="44" viewBox="0 0 45 44" fill="none" xmlns="http://www.w3.org/2000/svg">
<g filter="url(#filter0_d)">
<path d="M22.5723 2C12.4046 2 4 10.0367 4 19.9297C4 29.8227 12.4046 38 22.5723 38C32.7399 38 41 29.8227 41 19.9297C41 10.0367 32.7399 2 22.5723 2Z" fill="#B758CE"/>
<path d="M41 19.9297C41 29.8227 32.7399 38 22.5723 38V2C32.7399 2 41 10.0367 41 19.9297Z" fill="#AA3DC8"/>
<path d="M22.5723 6.21875C14.8108 6.21875 8.33594 12.3781 8.33594 19.9297C8.33594 27.4812 14.8108 33.7812 22.5723 33.7812C30.3337 33.7812 36.6641 27.4812 36.6641 19.9297C36.6641 12.3781 30.3337 6.21875 22.5723 6.21875Z" fill="#E1E4FB"/>
<path d="M22.5723 33.7812C30.3337 33.7812 36.6641 27.4812 36.6641 19.9297C36.6641 12.3781 30.3337 6.21875 22.5723 6.21875V33.7812Z" fill="#C5C9F7"/>
<path d="M32.3281 19.9297C32.3281 20.5202 31.8512 20.9844 31.2441 20.9844H22.5723C21.9652 20.9844 21.4883 20.5202 21.4883 19.9297V11.4922C21.4883 10.9015 21.9652 10.4375 22.5723 10.4375C23.1794 10.4375 23.6562 10.9015 23.6562 11.4922V18.875H31.2441C31.8512 18.875 32.3281 19.339 32.3281 19.9297Z" fill="#0D70B2"/>
<path d="M32.7559 19.4922C32.7559 20.0827 32.279 20.5469 31.6719 20.5469H23V10C23.6071 10 24.084 10.464 24.084 11.0547V18.4375H31.6719C32.279 18.4375 32.7559 18.9015 32.7559 19.4922Z" fill="#0059AA"/>
</g>
<defs>
<filter id="filter0_d" x="0" y="0" width="45" height="44" filterUnits="userSpaceOnUse" color-interpolation-filters="sRGB">
<feFlood flood-opacity="0" result="BackgroundImageFix"/>
<feColorMatrix in="SourceAlpha" type="matrix" values="0 0 0 0 0 0 0 0 0 0 0 0 0 0 0 0 0 0 127 0"/>
<feOffset dy="2"/>
<feGaussianBlur stdDeviation="2"/>
<feColorMatrix type="matrix" values="0 0 0 0 0 0 0 0 0 0 0 0 0 0 0 0 0 0 0.25 0"/>
<feBlend mode="normal" in2="BackgroundImageFix" result="effect1_dropShadow"/>
<feBlend mode="normal" in="SourceGraphic" in2="effect1_dropShadow" result="shape"/>
</filter>
</defs>
</svg>
