<svg width="45" height="44" viewBox="0 0 45 44" fill="none" xmlns="http://www.w3.org/2000/svg">
<g clip-path="url(#clip0)" filter="url(#filter0_d)">
<path d="M40.9904 20.0047C40.9904 21.6331 40.7677 23.2108 40.351 24.7115C40.2265 25.1595 40.0854 25.6 39.9267 26.0334C39.7486 26.5212 39.5493 26.9986 39.3303 27.4658C36.4165 33.6805 29.9741 38 22.4952 38C15.0163 38 8.57391 33.6805 5.66013 27.4658C5.44108 26.9986 5.24178 26.5212 5.06366 26.0334C4.90501 25.6 4.76387 25.1595 4.63938 24.7115C4.22272 23.2108 4 21.6331 4 20.0047C4 10.0662 12.2806 2.00934 22.4952 2.00934C32.7098 2.00934 40.9904 10.0662 40.9904 20.0047Z" fill="#3FB777"/>
<path d="M39.3303 23.2489V25.5017C37.5081 29.3881 34.3064 32.5324 30.3349 34.3438C29.6156 34.6714 28.8704 34.9557 28.1034 35.1922C27.2404 35.4602 26.3504 35.6665 25.4372 35.8082C25.4332 35.8091 25.4287 35.8099 25.425 35.8099V23.2489C25.425 20.5718 27.5439 18.3757 30.2406 18.1642C30.3826 18.1524 30.5251 18.1472 30.6694 18.1472H34.0845C34.4885 18.1472 34.8817 18.1906 35.2591 18.2749C37.5902 18.7934 39.3303 20.8245 39.3303 23.2489Z" fill="#BFD5DE"/>
<path d="M39.3303 23.2489V25.5017C37.5081 29.3881 34.3064 32.5324 30.3349 34.3438C29.6156 34.6714 28.8704 34.9557 28.1034 35.1922V23.2489C28.1034 20.4315 30.452 18.1472 33.3486 18.1472H34.0854C36.9825 18.1472 39.3303 20.4315 39.3303 23.2489Z" fill="#DDE8ED"/>
<path d="M27.2444 12.5194C27.2444 13.3623 26.6118 14.0611 25.783 14.1907C25.6926 14.205 25.5995 14.2124 25.5043 14.2124C24.5429 14.2124 23.764 13.4546 23.764 12.5194C23.764 11.5842 24.5429 10.8264 25.5043 10.8264C25.5995 10.8264 25.6926 10.8338 25.783 10.8481C26.6115 10.9778 27.2444 11.6765 27.2444 12.5194Z" fill="#D3A489"/>
<path d="M33.7853 19.9879L32.3775 22.1849L30.9697 19.9879" fill="#F74F4F"/>
<path d="M34.2717 28.3916L32.3775 30.7177L30.4828 28.3916L32.3778 21.6133L34.2717 28.3916Z" fill="#F74F4F"/>
<path d="M27.2444 12.5194C27.2444 13.3624 26.6118 14.0611 25.783 14.1907C25.6326 13.6582 25.5521 13.0979 25.5521 12.5194C25.5521 11.941 25.6326 11.3807 25.783 10.8481C26.6115 10.9778 27.2444 11.6765 27.2444 12.5194Z" fill="#BF8E75"/>
<path d="M26.1263 12.5194C26.1263 12.8536 25.848 13.1245 25.5044 13.1245C25.1609 13.1245 24.8826 12.8536 24.8826 12.5194C24.8826 12.1851 25.1609 11.9143 25.5044 11.9143C25.848 11.9143 26.1263 12.1851 26.1263 12.5194Z" fill="#BF8E75"/>
<path d="M32.3769 20.2357L30.0159 21.5126L29.2977 18.262L30.7648 17.4213" fill="#BFD5DE"/>
<path d="M32.377 20.2357L34.7383 21.5126L35.4564 18.262L33.9894 17.4213" fill="#BFD5DE"/>
<path d="M37.5101 12.5194C37.5101 13.3623 38.143 14.0611 38.9715 14.1907C39.0621 14.205 39.1553 14.2124 39.2504 14.2124C40.2116 14.2124 40.9905 13.4546 40.9905 12.5194C40.9905 11.5842 40.2116 10.8264 39.2504 10.8264C39.1553 10.8264 39.0621 10.8338 38.9715 10.8481C38.143 10.9778 37.5101 11.6765 37.5101 12.5194Z" fill="#D3A489"/>
<path d="M37.51 12.5194C37.51 13.3624 38.1429 14.0611 38.9714 14.1907C39.1222 13.6582 39.2023 13.0979 39.2023 12.5194C39.2023 11.941 39.1222 11.3807 38.9714 10.8481C38.1429 10.9778 37.51 11.6765 37.51 12.5194Z" fill="#BF8E75"/>
<path d="M39.8722 12.5194C39.8722 12.8536 39.5936 13.1245 39.2503 13.1245C38.9068 13.1245 38.6284 12.8536 38.6284 12.5194C38.6284 12.1851 38.9068 11.9143 39.2503 11.9143C39.5936 11.9143 39.8722 12.1851 39.8722 12.5194Z" fill="#BF8E75"/>
<path d="M38.8518 11.6196C38.8518 14.7543 36.4981 17.3548 33.4166 17.8376C33.0784 17.8917 32.7315 17.9189 32.3772 17.9189C28.8015 17.9189 25.903 15.0987 25.903 11.6196C25.903 9.97331 26.4907 7.50221 27.5529 6.37996C28.7363 5.13027 30.4932 5.32005 32.3772 5.32005C32.7315 5.32005 33.0784 5.34752 33.4166 5.40135C36.4981 5.8842 38.8518 8.48467 38.8518 11.6196Z" fill="#BF8E75"/>
<path d="M34.2485 16.1812V18.4155C34.2485 19.2334 33.6941 19.9247 32.9308 20.1544C32.7561 20.2071 32.5697 20.2357 32.3769 20.2357C31.3438 20.2357 30.5062 19.4207 30.5062 18.4155V16.1812H34.2485Z" fill="#BF8E75"/>
<path d="M34.2485 18.274V18.4155C34.2485 19.2334 33.6941 19.925 32.9308 20.1546C32.2417 19.9484 31.7237 19.3655 31.6283 18.6525C31.7531 18.6599 31.879 18.6638 32.0051 18.6638C32.3591 18.6638 32.7061 18.6363 33.0443 18.5825C33.4609 18.5171 33.8632 18.413 34.2485 18.274Z" fill="#D3A489"/>
<path d="M38.8518 11.6196C38.8518 14.7543 36.4981 17.3548 33.4166 17.8376C30.3349 17.3548 27.9812 14.7543 27.9812 11.6196C27.9812 9.68933 28.8735 7.96146 30.2796 6.80597C31.1558 6.08472 32.2327 5.58704 33.4166 5.40137C36.2895 5.85126 38.5303 8.14273 38.8199 10.9915C38.8411 11.198 38.8518 11.4079 38.8518 11.6196Z" fill="#D3A489"/>
<path d="M32.3773 14.7221C31.8353 14.7221 31.293 14.5898 30.799 14.3255C30.6596 14.2511 30.6088 14.0805 30.6853 13.9449C30.762 13.8095 30.9371 13.76 31.0765 13.8345C31.8912 14.2701 32.864 14.2701 33.6784 13.8345C33.8178 13.76 33.9928 13.8095 34.0696 13.9449C34.1461 14.0805 34.0953 14.2511 33.9559 14.3255C33.4618 14.5898 32.9196 14.7221 32.3773 14.7221Z" fill="#BF8E75"/>
<path d="M30.9986 11.253C30.9986 11.6474 30.6697 11.9674 30.2641 11.9674C29.8584 11.9674 29.5295 11.6474 29.5295 11.253C29.5295 10.8583 29.8584 10.5383 30.2641 10.5383C30.6697 10.5383 30.9986 10.8583 30.9986 11.253Z" fill="#3D4159"/>
<path d="M35.2253 11.253C35.2253 11.6474 34.8964 11.9674 34.4907 11.9674C34.0851 11.9674 33.7562 11.6474 33.7562 11.253C33.7562 10.8583 34.0851 10.5383 34.4907 10.5383C34.8964 10.5383 35.2253 10.8583 35.2253 11.253Z" fill="#3D4159"/>
<path d="M30.849 11.1266C30.849 11.2958 30.7081 11.4329 30.5342 11.4329C30.3603 11.4329 30.2195 11.2958 30.2195 11.1266C30.2195 10.9577 30.3603 10.8204 30.5342 10.8204C30.7081 10.8204 30.849 10.9577 30.849 11.1266Z" fill="white"/>
<path d="M35.1114 11.1266C35.1114 11.2958 34.9706 11.4329 34.7967 11.4329C34.6228 11.4329 34.4819 11.2958 34.4819 11.1266C34.4819 10.9577 34.6228 10.8204 34.7967 10.8204C34.9706 10.8204 35.1114 10.9577 35.1114 11.1266Z" fill="white"/>
<path d="M33.1118 13.052H31.6431C31.468 13.052 31.326 12.9141 31.326 12.7438C31.326 12.5735 31.468 12.4357 31.6431 12.4357H33.1118C33.2868 12.4357 33.4288 12.5735 33.4288 12.7438C33.4288 12.9141 33.2868 13.052 33.1118 13.052Z" fill="#BF8E75"/>
<path d="M34.509 23.0817H37.3316V23.9224H34.509V23.0817Z" fill="#BFD5DE"/>
<path d="M31.9987 3.52047C33.9597 3.6567 35.5346 5.19836 35.6342 7.13882L35.6529 7.50302H36.7809L37.3889 11.4348L38.8605 10.9915L38.6629 7.13882C38.5585 5.10058 36.8258 3.5029 34.7289 3.51059L31.9987 3.52047Z" fill="#2A2F4F"/>
<path d="M38.5382 2C40.1001 3.51968 40.1001 5.98337 38.5382 7.50305C36.9766 9.02246 34.4442 9.02246 32.8826 7.50305L38.5382 2Z" fill="#3D4159"/>
<path d="M32.8826 7.50302H27.9741L27.3661 11.4348L25.8945 10.9915L26.0919 7.13882C26.1963 5.10086 27.929 3.5029 30.0261 3.51059L37.1149 3.5364L38.0521 5.17776" fill="#3D4159"/>
<path d="M32.7561 3.52047C30.7951 3.6567 29.2202 5.19836 29.1206 7.13882L29.1019 7.50302H27.9739L27.3659 11.4348L25.8943 10.9915L26.0919 7.13882C26.1963 5.10058 27.929 3.5029 30.0258 3.51059L32.7561 3.52047Z" fill="#2A2F4F"/>
<path d="M39.9268 26.0334C38.3686 30.2972 35.2055 33.8208 31.1451 35.914C29.9355 36.5383 28.6463 37.0357 27.2958 37.3867C26.611 37.5661 25.9104 37.7078 25.1962 37.8091C24.3146 37.9355 23.4124 38 22.4953 38C22.327 38 22.1585 37.9978 21.9911 37.9934C21.2413 37.9737 20.5023 37.911 19.7777 37.8061C17.7446 37.5161 15.8197 36.9028 14.0585 36.0228C12.7623 35.3757 11.5561 34.5838 10.4605 33.6695C10.2115 33.4616 9.96847 33.2479 9.73135 33.0273C9.23904 32.5714 8.7727 32.088 8.33487 31.5804C8.16409 31.3835 7.9981 31.183 7.83663 30.9789C6.66175 29.4966 5.7206 27.8308 5.06372 26.0334H39.9268Z" fill="#A35418"/>
<path d="M40.351 24.7115C40.2266 25.1595 40.0854 25.6 39.9268 26.0334C39.7486 26.5212 39.5493 26.9986 39.3303 27.4658H5.66016C5.4411 26.9986 5.24181 26.5212 5.06368 26.0334C4.90504 25.6 4.76389 25.1595 4.6394 24.7115H40.351Z" fill="#CC7A3B"/>
<path d="M18.7425 23.932V26.7698C18.7425 27.8085 18.0385 28.6866 17.0688 28.9783C16.8469 29.0453 16.6104 29.0816 16.3656 29.0816C15.0533 29.0816 13.9896 28.0467 13.9896 26.7698V23.932H18.7425Z" fill="#EAB599"/>
<path d="M13.2853 25.6558H19.6768V27.5163H13.2853V25.6558Z" fill="#2BA1CF"/>
<path d="M18.7424 26.5898V26.7697C18.7424 27.8085 18.0384 28.6866 17.0688 28.9783C16.1939 28.7165 15.5359 27.9763 15.4146 27.0708C15.5732 27.0804 15.733 27.0851 15.8933 27.0851C16.343 27.0851 16.7836 27.0502 17.213 26.9818C17.742 26.8988 18.2532 26.7664 18.7424 26.5898Z" fill="#F6CAAE"/>
<path d="M25.3201 15.0924V24.8664L12.1991 26.1724L7.41235 26.6484V15.0924C7.41235 14.0992 7.58201 13.1261 7.91793 12.2005C9.00954 9.17874 11.7122 7.01718 14.8896 6.5C15.3017 6.43326 15.7223 6.39371 16.148 6.38327C16.1994 6.3819 16.2499 6.38107 16.3005 6.38107C16.3225 6.38025 16.3437 6.38025 16.3654 6.38025C16.8357 6.38025 17.3054 6.41568 17.7605 6.48544C19.8463 6.80267 21.7593 7.83841 23.1459 9.40149C24.5478 10.9813 25.3201 13.0025 25.3201 15.0924Z" fill="#3D4159"/>
<path d="M11.0954 15.4742C11.0954 18.6825 11.2616 23.8917 12.1991 26.1724L7.41235 26.6484V15.0924C7.41235 14.0993 7.58201 13.1262 7.91793 12.2006C9.15153 8.78656 12.4413 6.47064 16.148 6.3833C16.1994 6.38193 16.2499 6.3811 16.3005 6.3811C13.5473 6.44785 11.0954 10.7449 11.0954 15.4742Z" fill="#2A2F4F"/>
<path d="M25.1961 32.9092V34.2855C22.5593 35.4902 19.6136 36.1636 16.5073 36.1636C15.6785 36.1636 14.8616 36.1161 14.0584 36.0227C12.7622 35.3756 11.556 34.5838 10.4604 33.6695C9.49414 32.8636 8.61397 31.9616 7.83655 30.9789C8.51206 28.8693 10.2651 27.2219 12.4709 26.6484C12.5742 26.6217 12.6783 26.5962 12.7848 26.5739C13.0671 26.5152 13.357 26.4734 13.6522 26.4498C13.8318 26.4352 14.013 26.4286 14.1965 26.4286H18.5341C19.0188 26.4286 19.4922 26.4786 19.9473 26.5739C19.9729 26.5792 20.0003 26.5852 20.0252 26.591C20.1022 26.6077 20.1784 26.6261 20.2538 26.6467C20.2561 26.6467 20.2583 26.6467 20.26 26.6476C21.0103 26.8428 21.7079 27.1625 22.3275 27.5817C24.0616 28.752 25.1961 30.7021 25.1961 32.9092Z" fill="#2BA1CF"/>
<path d="M25.1961 32.9092V37.8091C24.3146 37.9355 23.4124 38 22.4952 38C17.8993 38 13.6952 36.3694 10.4604 33.6695V32.9092C10.4604 29.911 12.5525 27.3878 15.3954 26.6484C15.4987 26.6217 15.6029 26.5962 15.7093 26.5739C15.9916 26.5152 16.2815 26.4734 16.5768 26.4498C16.7563 26.4352 16.9375 26.4286 17.121 26.4286H18.5342C19.0188 26.4286 19.4922 26.4786 19.9473 26.5739C19.973 26.5792 20.0004 26.5852 20.0252 26.591C20.1023 26.6077 20.1785 26.6261 20.2539 26.6467C20.2561 26.6467 20.2584 26.6467 20.2601 26.6476C21.0104 26.8428 21.7079 27.1625 22.3275 27.5817C24.0616 28.752 25.1961 30.7021 25.1961 32.9092Z" fill="#66BAED"/>
<path d="M16.3004 6.3811C16.3004 6.3811 14.6442 8.37018 14.6442 12.4348C14.6442 12.4348 13.4476 9.52045 14.8895 6.50003C15.3016 6.43329 15.7223 6.39374 16.1479 6.3833C16.1993 6.38193 16.2498 6.3811 16.3004 6.3811Z" fill="#2A2F4F"/>
<path d="M31.1451 31.983V35.9139C30.4196 36.2886 29.6661 36.6168 28.887 36.8953C28.3676 37.0818 27.8369 37.2463 27.2958 37.3867V31.983H31.1451Z" fill="#66BAED"/>
<path d="M28.887 31.983V36.8953C28.3676 37.0818 27.8369 37.2463 27.2958 37.3867V31.983H28.887Z" fill="#2BA1CF"/>
<path d="M34.7247 30.9003C34.7247 31.4983 34.2265 31.983 33.612 31.983H27.2958V30.9003C27.2958 30.3024 27.794 29.8176 28.4083 29.8176H33.612C33.9191 29.8176 34.1977 29.9388 34.3987 30.1349C34.5043 30.2379 34.5887 30.362 34.6454 30.4993C34.6968 30.6235 34.7247 30.7586 34.7247 30.9003Z" fill="#EAB599"/>
<path d="M34.6454 30.4993C34.4817 30.8987 34.0808 31.1808 33.612 31.1808H27.2958V30.9003C27.2958 30.3024 27.794 29.8176 28.4083 29.8176H33.612C33.9191 29.8176 34.1977 29.9388 34.3987 30.1349C34.5043 30.2379 34.5887 30.362 34.6454 30.4993Z" fill="#F6CAAE"/>
<path d="M21.9911 33.9266V37.9934C21.2413 37.9737 20.5023 37.911 19.7777 37.8061C17.7446 37.5161 15.8197 36.9028 14.0585 36.0228C12.7622 35.3757 11.556 34.5838 10.4605 33.6695C10.2115 33.4616 9.96844 33.2479 9.73132 33.0273C10.1381 31.5453 11.5272 30.4543 13.1789 30.4543H18.4224C20.3936 30.4543 21.9911 32.0086 21.9911 33.9266Z" fill="#854F89"/>
<path d="M19.7776 33.9266V37.8061C17.7446 37.5161 15.8197 36.9028 14.0585 36.0228C12.7622 35.3757 11.556 34.5838 10.4605 33.6695C10.2115 33.4616 9.96844 33.2479 9.73132 33.0273C9.23901 32.5714 8.77267 32.088 8.33484 31.5804C8.98692 30.8886 9.92384 30.4543 10.9649 30.4543H16.2093C18.1802 30.4543 19.7776 32.0086 19.7776 33.9266Z" fill="#713775"/>
</g>
<defs>
<filter id="filter0_d" x="0" y="0" width="45" height="44" filterUnits="userSpaceOnUse" color-interpolation-filters="sRGB">
<feFlood flood-opacity="0" result="BackgroundImageFix"/>
<feColorMatrix in="SourceAlpha" type="matrix" values="0 0 0 0 0 0 0 0 0 0 0 0 0 0 0 0 0 0 127 0"/>
<feOffset dy="2"/>
<feGaussianBlur stdDeviation="2"/>
<feColorMatrix type="matrix" values="0 0 0 0 0 0 0 0 0 0 0 0 0 0 0 0 0 0 0.25 0"/>
<feBlend mode="normal" in2="BackgroundImageFix" result="effect1_dropShadow"/>
<feBlend mode="normal" in="SourceGraphic" in2="effect1_dropShadow" result="shape"/>
</filter>
<clipPath id="clip0">
<rect width="37" height="36" fill="white" transform="translate(4 2)"/>
</clipPath>
</defs>
</svg>
