<?xml version="1.0"?>
<svg xmlns="http://www.w3.org/2000/svg" viewBox="0 0 64 64" width="512" height="512"><g id="flat"><path d="M61,23a1,1,0,0,1-1-1V16a3,3,0,0,0-3-3H54v3a1,1,0,0,1-2,0V12a1,1,0,0,1,1-1h4a5.006,5.006,0,0,1,5,5v6A1,1,0,0,1,61,23Z" style="fill:#38495c"/><rect x="4" y="3" width="44" height="58" rx="4" ry="4" style="fill:#844aa8"/><rect x="8" y="33" width="36" height="24" style="fill:#f3bb59"/><rect x="8" y="13" width="36" height="20" style="fill:#dc93bf"/><rect x="7" y="6" width="10" height="2" style="fill:#dc93bf"/><rect x="19" y="6" width="2" height="2" style="fill:#dc93bf"/><rect x="11" y="16" width="2" height="2" style="fill:#fff"/><rect x="15" y="16" width="8" height="2" style="fill:#fff"/><rect x="11" y="20" width="2" height="2" style="fill:#fff"/><rect x="15" y="20" width="8" height="2" style="fill:#fff"/><rect x="11" y="24" width="2" height="2" style="fill:#fff"/><rect x="15" y="24" width="8" height="2" style="fill:#fff"/><rect x="11" y="36" width="2" height="2" style="fill:#e97131"/><rect x="15" y="36" width="8" height="2" style="fill:#e97131"/><rect x="11" y="40" width="2" height="2" style="fill:#e97131"/><rect x="15" y="40" width="8" height="2" style="fill:#e97131"/><rect x="34" y="16" width="7" height="2" style="fill:#fff"/><rect x="37" y="20" width="4" height="2" style="fill:#fff"/><rect x="32" y="24" width="9" height="2" style="fill:#fff"/><rect x="52" y="21" width="4" height="26" style="fill:#e97131"/><rect x="52" y="15" width="4" height="6" style="fill:#66342e"/><polygon points="52 47 54 55 56 47 52 47" style="fill:#66342e"/><path d="M41,42V40H37V38H35v2H31a1,1,0,0,0-1,1v4a1,1,0,0,0,1,1h8v2H30v2h5v2h2V50h3a1,1,0,0,0,1-1V45a1,1,0,0,0-1-1H32V42Z" style="fill:#e97131"/><rect x="43" y="6" width="2" height="4" style="fill:#dc93bf"/><rect x="39" y="6" width="2" height="4" style="fill:#dc93bf"/><rect x="35" y="6" width="2" height="4" style="fill:#dc93bf"/></g></svg>
