<svg id="Capa_1" enable-background="new 0 0 512 512" height="512" viewBox="0 0 512 512" width="512" xmlns="http://www.w3.org/2000/svg"><g><path d="m512 256c0 54.89-17.28 105.74-46.69 147.42-9.09 12.89-19.34 24.89-30.6 35.86-5.36 5.25-10.96 10.24-16.76 14.98-16.24 13.29-34.13 24.61-53.33 33.61-32.97 15.48-69.79 24.13-108.62 24.13s-75.65-8.65-108.62-24.13l-27.582-72.502-82.138-25.648c-23.89-38.92-37.66-84.71-37.66-133.72s13.77-94.8 37.66-133.72c8.87-14.45 19.13-27.95 30.59-40.31 22.93-24.72 50.69-44.91 81.77-59.06 1.43-.66 2.87-1.29 4.31-1.92 31.16-13.5 65.54-20.99 101.67-20.99s70.51 7.49 101.67 20.99c19.41 8.41 37.57 19.15 54.14 31.88 8.02 6.15 15.67 12.78 22.9 19.85 11.26 10.97 21.51 22.98 30.6 35.86 29.41 41.68 46.69 92.53 46.69 147.42z" fill="#e49542"/><path d="m434.71 64.65v379.56c0 3.46-6.15 6.83-16.76 10.05-51 15.53-198.465-.596-267.215 3.615-28.71-13.96-61.005-4.695-82.485-27.845-11.46-12.36-21.72-25.86-30.59-40.31v-325.07c0-24.11 19.55-43.66 43.66-43.66h30.6c4.47 0 18.39.67 38.1 1.92 68.55 4.35 207.15 15.68 261.79 29.96 14.34 3.75 22.9 7.7 22.9 11.78z" fill="#30579d"/><path d="m465.31 64.65v379.56c0 24.12-19.55 43.66-43.67 43.66h-274.26c-30.01-14.08-56.85-33.82-79.13-57.84v-365.38c0-24.11 19.55-43.66 43.67-43.66h309.72c24.12 0 43.67 19.55 43.67 43.66z" fill="#dddaec"/><path d="m111.919 457.875c-7.535 0-13.666-6.13-13.666-13.666v-379.556c0-7.535 6.13-13.666 13.666-13.666h309.723c7.535 0 13.666 6.13 13.666 13.666v379.557c0 7.535-6.131 13.666-13.666 13.666h-309.723z" fill="#f9f6f9"/><path d="m222.645 89.009c-25.052-25.052-65.816-25.052-90.868 0-25.053 25.052-25.053 65.816 0 90.868 12.526 12.526 28.98 18.789 45.434 18.789 16.453 0 32.908-6.263 45.434-18.789 25.052-25.053 25.052-65.816 0-90.868zm-75.407 15.461c8.264-8.263 19.118-12.395 29.974-12.395 7.344 0 14.685 1.898 21.226 5.681l-57.914 57.914c-9.374-16.211-7.141-37.346 6.714-51.2zm59.946 59.946c-13.855 13.855-34.99 16.088-51.2 6.714l57.914-57.914c9.374 16.21 7.141 37.345-6.714 51.2z" fill="#dd5790"/><g fill="#30579d"><path d="m404.119 134.605h-129.026c-7.346 0-13.302-5.955-13.302-13.302 0-7.346 5.955-13.302 13.302-13.302h129.026c7.346 0 13.302 5.955 13.302 13.302 0 7.346-5.955 13.302-13.302 13.302z"/><path d="m404.119 189.659h-129.026c-7.346 0-13.302-5.955-13.302-13.302 0-7.346 5.955-13.302 13.302-13.302h129.026c7.346 0 13.302 5.955 13.302 13.302 0 7.347-5.955 13.302-13.302 13.302z"/><path d="m266.447 354.822h-129.026c-7.346 0-13.302-5.955-13.302-13.302 0-7.346 5.955-13.302 13.302-13.302h129.026c7.346 0 13.302 5.955 13.302 13.302 0 7.347-5.955 13.302-13.302 13.302z"/><path d="m266.447 409.877h-129.026c-7.346 0-13.302-5.955-13.302-13.302 0-7.346 5.955-13.302 13.302-13.302h129.026c7.346 0 13.302 5.955 13.302 13.302 0 7.346-5.955 13.302-13.302 13.302z"/><path d="m404.119 244.714h-266.698c-7.346 0-13.302-5.955-13.302-13.302 0-7.346 5.955-13.302 13.302-13.302h266.698c7.346 0 13.302 5.955 13.302 13.302 0 7.346-5.955 13.302-13.302 13.302z"/><path d="m404.119 299.768h-266.698c-7.346 0-13.302-5.955-13.302-13.302 0-7.346 5.955-13.302 13.302-13.302h266.698c7.346 0 13.302 5.955 13.302 13.302 0 7.347-5.955 13.302-13.302 13.302z"/></g><path d="m428.622 379.256c0 7.263-1.252 14.221-3.564 20.694-8.503 23.863-31.295 33.13-58.067 33.13s-49.564-9.267-58.067-33.13c-2.312-6.473-3.564-13.431-3.564-20.694 0-34.046 27.596-61.642 61.631-61.642s61.631 27.595 61.631 61.642z" fill="#bed8fb"/><path d="m425.058 399.95c-8.503 23.863-31.295 40.937-58.067 40.937s-49.564-17.074-58.067-40.937c2.774-1.094 5.797-1.692 8.966-1.692 13.555 0 24.551 10.995 24.551 24.562 0-13.567 10.984-24.562 24.551-24.562 13.555 0 24.551 10.995 24.551 24.562 0-13.567 10.984-24.562 24.551-24.562 3.157 0 6.179.598 8.964 1.692z" fill="#6bbef6"/><g fill="#6bbef6"><path d="m348.424 362.898c-10.345-10.122-25.899 5.431-15.776 15.776.058.059.116.117.174.176 5.837 5.837 14.098 7.743 21.539 5.761 1.982-7.441.076-15.702-5.761-21.539-.059-.059-.117-.117-.176-.174z"/><path d="m385.559 362.898c10.345-10.122 25.899 5.431 15.776 15.776-.058.059-.116.117-.174.176-5.837 5.837-14.098 7.743-21.539 5.761-1.982-7.441-.076-15.702 5.761-21.539.058-.059.117-.117.176-.174z"/></g><path d="m355.836 353.939c.158-14.473 22.153-14.473 22.311 0 .001.082.001.165.001.247 0 8.254-4.494 15.444-11.157 19.304-6.663-3.86-11.157-11.05-11.157-19.304.001-.082.001-.164.002-.247z" fill="#6bbef6"/></g></svg>