<svg width="45" height="44" viewBox="0 0 45 44" fill="none" xmlns="http://www.w3.org/2000/svg">
<g clip-path="url(#clip0)" filter="url(#filter0_d)">
<path d="M41 20C41 22.6625 40.4058 25.1899 39.3396 27.4638C37.5169 31.3511 34.3143 34.4962 30.3417 36.3081C29.6221 36.6358 28.8769 36.92 28.1096 37.1565C27.2467 37.4249 26.3563 37.6311 25.4426 37.7729C25.4389 37.7737 25.4344 37.7745 25.4304 37.7745C24.9822 37.8443 24.5296 37.8978 24.0715 37.9355C23.9738 37.9434 23.8759 37.9508 23.7776 37.9574C23.6393 37.9662 23.5004 37.9742 23.3607 37.9802C23.0753 37.9934 22.7885 38 22.5 38C22.2039 38 21.9103 37.9934 21.6181 37.9794C21.486 37.9736 21.3536 37.9662 21.2215 37.9566C21.1227 37.95 21.0245 37.9434 20.9262 37.9355C20.4574 37.8973 19.993 37.8412 19.5349 37.7693C19.3158 37.7347 19.0976 37.6973 18.8816 37.6553C17.9444 37.4746 17.0338 37.2257 16.1542 36.9126C15.6444 36.7319 15.1453 36.5298 14.6575 36.3073C14.4915 36.2315 14.3261 36.1529 14.1621 36.0714C13.7409 35.8643 13.3293 35.6415 12.9276 35.4042C10.9152 34.2185 9.15429 32.6697 7.73918 30.8515C6.88978 29.7597 6.16571 28.571 5.5873 27.3043C4.56712 25.0724 4 22.6007 4 20C4 10.0587 12.2826 2 22.5 2C32.7174 2 41 10.0587 41 20Z" fill="#FFE152"/>
<path d="M18.8817 25.3588V37.6553C17.9445 37.4745 17.0339 37.2257 16.1543 36.9126C15.6445 36.7319 15.1454 36.5297 14.6576 36.3073C14.4916 36.2314 14.3262 36.1529 14.1622 36.0713C13.741 35.8642 13.3294 35.6415 12.9277 35.4042C10.9153 34.2185 9.15439 32.6697 7.73928 30.8514C6.88988 29.7597 6.16581 28.571 5.5874 27.3042V25.3588C5.5874 23.102 7.16257 21.2027 9.30174 20.6465C9.38022 20.6259 9.45869 20.6067 9.53886 20.5908C9.75086 20.5452 9.96907 20.5141 10.1912 20.4966C10.3264 20.4864 10.4631 20.4803 10.6011 20.4803H13.8669C14.2316 20.4803 14.5873 20.518 14.9303 20.5908C14.9498 20.5943 14.9695 20.5987 14.989 20.6031C15.0466 20.6158 15.1047 20.6295 15.1612 20.6443C15.1629 20.6451 15.1643 20.6451 15.1657 20.6457C15.7306 20.7926 16.2553 21.033 16.7228 21.3488C18.0275 22.2296 18.8817 23.6969 18.8817 25.3588Z" fill="#2BA1CF"/>
<path d="M18.8817 25.3588V37.6553C17.9445 37.4745 17.0339 37.2257 16.1543 36.9126C15.6444 36.7319 15.1454 36.5297 14.6576 36.3073C14.4916 36.2314 14.3262 36.1529 14.1621 36.0713C13.741 35.8642 13.3294 35.6415 12.9277 35.4042C10.9153 34.2185 9.15437 32.6697 7.73926 30.8514V25.3588C7.73926 23.102 9.31442 21.2027 11.4536 20.6465C11.5324 20.6259 11.6108 20.6067 11.6907 20.5908C11.903 20.5452 12.1212 20.5141 12.3431 20.4966C12.4783 20.4864 12.6149 20.4803 12.7533 20.4803H13.8669C14.2316 20.4803 14.5873 20.518 14.9303 20.5908C14.9497 20.5943 14.9695 20.5987 14.989 20.6031C15.0466 20.6158 15.1047 20.6295 15.1612 20.6443C15.1629 20.6451 15.1643 20.6451 15.1657 20.6457C15.7305 20.7926 16.2553 21.033 16.7228 21.3488C18.0275 22.2296 18.8817 23.6969 18.8817 25.3588Z" fill="#66BAED"/>
<path d="M15.178 20.5906L15.1661 20.6458L13.6661 27.434C13.5221 28.0863 12.9321 28.5592 12.2467 28.5598C12.2425 28.5598 12.2385 28.5598 12.2346 28.5598C12.2301 28.5598 12.2258 28.5598 12.2213 28.5598C11.5356 28.5592 10.9459 28.0863 10.802 27.434L9.3019 20.6463L9.29004 20.5906H15.178Z" fill="#F2F0EC"/>
<path d="M12.234 22.4777L9.97656 23.6983L9.29004 20.5905L10.6927 19.7869" fill="#D8D5D0"/>
<path d="M12.2341 22.4777L14.4916 23.6983L15.1781 20.5905L13.7754 19.7869" fill="#D8D5D0"/>
<path d="M5.49414 19.3045V11.947C5.49414 11.1994 5.6223 10.4669 5.87523 9.76978C6.82174 7.14954 9.37729 5.38843 12.2343 5.38843C12.5883 5.38843 12.9415 5.41507 13.2847 5.4678C14.8542 5.70648 16.2945 6.48596 17.3386 7.66287C18.3938 8.85242 18.9751 10.3737 18.9751 11.947V19.3045" fill="#CC7A3B"/>
<path d="M8.26681 12.2343C8.26681 14.8367 9.83322 17.8475 10.6934 19.3046H5.4939V11.9471C5.4939 11.1997 5.62234 10.4672 5.87498 9.76984C6.81585 7.1647 9.34797 5.40881 12.1852 5.38904C10.113 5.4393 8.26681 8.67422 8.26681 12.2343Z" fill="#A35418"/>
<path d="M14.0235 18.6012V20.7375C14.0235 21.5194 13.4937 22.1805 12.7637 22.4C12.5965 22.4505 12.4184 22.4777 12.2344 22.4777C11.2464 22.4777 10.4458 21.6988 10.4458 20.7375V18.6012H14.0235Z" fill="#EAB599"/>
<path d="M14.0236 20.6021V20.7375C14.0236 21.5194 13.4937 22.1805 12.7637 22.4C12.1051 22.203 11.61 21.6458 11.5186 20.9641C11.638 20.9712 11.7582 20.9748 11.8788 20.9748C12.2172 20.9748 12.5492 20.9487 12.8721 20.897C13.2704 20.8347 13.6555 20.735 14.0236 20.6021Z" fill="#F6CAAE"/>
<path d="M7.32732 15.1004C7.32732 15.9062 6.72238 16.5745 5.93 16.6983C5.84362 16.7121 5.75442 16.7192 5.66352 16.7192C4.74467 16.7192 4 15.9947 4 15.1004C4 14.2064 4.74467 13.4818 5.66352 13.4818C5.75442 13.4818 5.84362 13.489 5.93 13.5027C6.72238 13.6266 7.32732 14.2945 7.32732 15.1004Z" fill="#F6CAAE"/>
<path d="M7.3273 15.1004C7.3273 15.9062 6.72236 16.5745 5.92998 16.6983C5.78629 16.1894 5.70923 15.6535 5.70923 15.1004C5.70923 14.5475 5.78629 14.0116 5.92998 13.5027C6.72236 13.6266 7.3273 14.2945 7.3273 15.1004Z" fill="#EAB599"/>
<path d="M6.25837 15.1004C6.25837 15.4201 5.99217 15.6791 5.66359 15.6791C5.33529 15.6791 5.06909 15.4201 5.06909 15.1004C5.06909 14.781 5.33529 14.522 5.66359 14.522C5.99217 14.522 6.25837 14.781 6.25837 15.1004Z" fill="#EAB599"/>
<path d="M16.5062 13.0336V18.5976C15.6224 19.4186 14.489 19.9871 13.228 20.1849C13.2181 20.1865 13.2074 20.1882 13.1975 20.1898C12.8842 20.2384 12.5627 20.2626 12.2344 20.2626C8.81614 20.2626 6.04492 17.5663 6.04492 14.2404V11.9471C6.04492 11.6534 6.06638 11.3645 6.10815 11.0822C7.58085 12.1127 9.69236 12.0108 11.0377 10.7737C11.4832 10.3642 11.7929 9.87668 11.9679 9.3595C12.0653 10.265 12.491 11.1464 13.2455 11.8405C14.1438 12.6656 15.3305 13.0635 16.5062 13.0336Z" fill="#EAB599"/>
<path d="M16.5062 13.0336V18.5976C15.6224 19.4186 14.489 19.9871 13.228 20.1849C13.2182 20.1865 13.2074 20.1882 13.1976 20.1898C10.2369 19.7397 7.97241 17.2469 7.97241 14.2404V11.9471C7.97241 11.8861 7.97354 11.8254 7.9758 11.765C9.06712 11.8737 10.2008 11.5436 11.0378 10.7734C11.4832 10.3642 11.7929 9.8764 11.9679 9.3595C12.0653 10.265 12.491 11.1464 13.2455 11.8405C14.1438 12.6656 15.3305 13.0635 16.5062 13.0336Z" fill="#F6CAAE"/>
<path d="M15.5589 13.7318C15.5589 13.1791 15.0985 12.7314 14.5308 12.7314C13.9631 12.7314 13.5027 13.1791 13.5027 13.7318" fill="#EAB599"/>
<path d="M10.967 13.7318C10.967 13.1791 10.5066 12.7314 9.93894 12.7314C9.37126 12.7314 8.91113 13.1791 8.91113 13.7318" fill="#EAB599"/>
<path d="M10.6414 14.1574C10.6414 14.5348 10.327 14.8408 9.93911 14.8408C9.55125 14.8408 9.23706 14.5348 9.23706 14.1574C9.23706 13.7801 9.55125 13.4744 9.93911 13.4744C10.327 13.4744 10.6414 13.7801 10.6414 14.1574Z" fill="#3D4159"/>
<path d="M15.2327 14.1574C15.2327 14.5348 14.9185 14.8408 14.5307 14.8408C14.1428 14.8408 13.8286 14.5348 13.8286 14.1574C13.8286 13.7801 14.1428 13.4744 14.5307 13.4744C14.9185 13.4744 15.2327 13.7801 15.2327 14.1574Z" fill="#3D4159"/>
<path d="M12.9373 15.8776H11.5329C11.3655 15.8776 11.23 15.7455 11.23 15.5829C11.23 15.4203 11.3655 15.2882 11.5329 15.2882H12.9373C13.1044 15.2882 13.2399 15.4203 13.2399 15.5829C13.2399 15.7455 13.1044 15.8776 12.9373 15.8776Z" fill="#EAB599"/>
<path d="M12.2348 17.7423C11.7165 17.7423 11.1983 17.6159 10.7257 17.363C10.5925 17.2918 10.5439 17.129 10.617 16.9993C10.6904 16.8697 10.8578 16.8224 10.9911 16.8936C11.7699 17.3102 12.6998 17.3102 13.4786 16.8936C13.6118 16.8222 13.7792 16.8697 13.8526 16.9993C13.9257 17.129 13.8772 17.2918 13.7439 17.363C13.2714 17.6159 12.7531 17.7423 12.2348 17.7423Z" fill="#EAB599"/>
<path d="M10.4983 14.0369C10.4983 14.1987 10.3634 14.3297 10.1974 14.3297C10.0311 14.3297 9.89648 14.1987 9.89648 14.0369C9.89648 13.8752 10.0311 13.7441 10.1974 13.7441C10.3634 13.7441 10.4983 13.8752 10.4983 14.0369Z" fill="white"/>
<path d="M15.124 14.0369C15.124 14.1987 14.9894 14.3297 14.8234 14.3297C14.6571 14.3297 14.5225 14.1987 14.5225 14.0369C14.5225 13.8752 14.6571 13.7441 14.8234 13.7441C14.9894 13.7441 15.124 13.8752 15.124 14.0369Z" fill="white"/>
<path d="M16.4477 15.8217C16.4477 16.2358 16.1024 16.5717 15.6764 16.5717C15.2508 16.5717 14.9055 16.2358 14.9055 15.8217C14.9055 15.4072 15.2508 15.0713 15.6764 15.0713C16.1024 15.0713 16.4477 15.4072 16.4477 15.8217Z" fill="#EAB599"/>
<path d="M9.56358 15.8217C9.56358 16.2358 9.21863 16.5717 8.79266 16.5717C8.36697 16.5717 8.02173 16.2358 8.02173 15.8217C8.02173 15.4072 8.36697 15.0713 8.79266 15.0713C9.21863 15.0713 9.56358 15.4072 9.56358 15.8217Z" fill="#EAB599"/>
<path d="M39.3396 25.2106V27.4639C37.5168 31.3511 34.3143 34.4962 30.3417 36.3081C29.6221 36.6358 28.8769 36.9201 28.1096 37.1566C27.2467 37.4249 26.3563 37.6312 25.4426 37.7729C25.4389 37.7737 25.4344 37.7745 25.4304 37.7745V25.2106C25.4304 22.5327 27.5501 20.3357 30.2474 20.1242C30.3894 20.1124 30.5319 20.1074 30.6762 20.1074H34.0924C34.4964 20.1074 34.8896 20.1505 35.2673 20.2351C37.599 20.7537 39.3396 22.7853 39.3396 25.2106Z" fill="#BFD5DE"/>
<path d="M39.3396 25.2106V27.4639C37.5169 31.3511 34.3143 34.4962 30.3417 36.3081C29.6221 36.6358 28.8769 36.9201 28.1096 37.1566V25.2106C28.1096 22.3923 30.4588 20.1074 33.3562 20.1074H34.093C36.9912 20.1074 39.3396 22.3923 39.3396 25.2106Z" fill="#DDE8ED"/>
<path d="M27.2502 14.478C27.2502 15.3212 26.6173 16.0202 25.7885 16.1498C25.6979 16.1641 25.6048 16.1715 25.5096 16.1715C24.5482 16.1715 23.769 15.4135 23.769 14.478C23.769 13.5425 24.5482 12.7844 25.5096 12.7844C25.6048 12.7844 25.6979 12.7918 25.7885 12.8061C26.6173 12.936 27.2502 13.635 27.2502 14.478Z" fill="#D3A489"/>
<path d="M33.7932 21.9485L32.3849 24.1463L30.9766 21.9485" fill="#F74F4F"/>
<path d="M34.2795 30.3547L32.3847 32.681L30.4897 30.3547L32.385 23.5745L34.2795 30.3547Z" fill="#F74F4F"/>
<path d="M27.2502 14.478C27.2502 15.3212 26.6173 16.0202 25.7885 16.1498C25.6381 15.6173 25.5576 15.0567 25.5576 14.478C25.5576 13.8996 25.6381 13.339 25.7885 12.8062C26.6173 12.9361 27.2502 13.6351 27.2502 14.478Z" fill="#BF8E75"/>
<path d="M26.132 14.478C26.132 14.8123 25.8534 15.0833 25.5098 15.0833C25.1663 15.0833 24.8879 14.8123 24.8879 14.478C24.8879 14.1437 25.1663 13.8729 25.5098 13.8729C25.8534 13.8729 26.132 14.1437 26.132 14.478Z" fill="#BF8E75"/>
<path d="M32.3842 22.1964L30.0226 23.4735L29.3042 20.2219L30.7715 19.3809" fill="#BFD5DE"/>
<path d="M32.3843 22.1964L34.7462 23.4735L35.4646 20.2219L33.997 19.3809" fill="#BFD5DE"/>
<path d="M37.5188 14.478C37.5188 15.3212 38.1517 16.0202 38.9805 16.1498C39.0711 16.1641 39.1643 16.1715 39.2594 16.1715C40.2209 16.1715 41 15.4135 41 14.478C41 13.5425 40.2209 12.7844 39.2594 12.7844C39.1643 12.7844 39.0711 12.7918 38.9805 12.8061C38.1517 12.936 37.5188 13.635 37.5188 14.478Z" fill="#D3A489"/>
<path d="M37.5188 14.478C37.5188 15.3212 38.1517 16.0202 38.9805 16.1498C39.1312 15.6173 39.2114 15.0567 39.2114 14.478C39.2114 13.8996 39.1312 13.339 38.9805 12.8062C38.1517 12.9361 37.5188 13.6351 37.5188 14.478Z" fill="#BF8E75"/>
<path d="M39.8815 14.478C39.8815 14.8123 39.6029 15.0833 39.2594 15.0833C38.9158 15.0833 38.6372 14.8123 38.6372 14.478C38.6372 14.1437 38.9158 13.8729 39.2594 13.8729C39.6029 13.8729 39.8815 14.1437 39.8815 14.478Z" fill="#BF8E75"/>
<path d="M38.8609 13.578C38.8609 16.7135 36.5066 19.3148 33.424 19.7976C33.0861 19.8517 32.7389 19.8789 32.3847 19.8789C28.8078 19.8789 25.9087 17.0582 25.9087 13.578C25.9087 11.9314 26.4964 9.45949 27.5592 8.33696C28.7426 7.08699 30.5001 7.27678 32.3847 7.27678C32.7389 7.27678 33.0859 7.30424 33.424 7.35835C36.5066 7.8412 38.8609 10.4422 38.8609 13.578Z" fill="#BF8E75"/>
<path d="M34.2566 18.1409V20.3758C34.2566 21.194 33.7022 21.8856 32.9383 22.1152C32.7636 22.1679 32.5773 22.1965 32.3845 22.1965C31.351 22.1965 30.5132 21.3813 30.5132 20.3758V18.1409H34.2566Z" fill="#BF8E75"/>
<path d="M34.2565 20.234V20.3757C34.2565 21.1939 33.7021 21.8855 32.9383 22.1151C32.2492 21.9091 31.7312 21.326 31.6355 20.6128C31.7606 20.6202 31.8862 20.624 32.0126 20.624C32.3666 20.624 32.7138 20.5966 33.052 20.5427C33.4687 20.4774 33.8712 20.3733 34.2565 20.234Z" fill="#D3A489"/>
<path d="M38.8607 13.5779C38.8607 16.7134 36.5065 19.3147 33.4239 19.7976C30.3416 19.3147 27.9873 16.7134 27.9873 13.5779C27.9873 11.6471 28.8799 9.91895 30.286 8.76291C31.1628 8.04166 32.2397 7.5437 33.4239 7.35803C36.2976 7.8082 38.5392 10.1002 38.8288 12.9495C38.85 13.1563 38.8607 13.3662 38.8607 13.5779Z" fill="#D3A489"/>
<path d="M32.3849 16.6813C31.8423 16.6813 31.3003 16.5492 30.806 16.2847C30.6663 16.2103 30.6155 16.0397 30.6923 15.904C30.7688 15.7683 30.9441 15.7189 31.0835 15.7936C31.8982 16.2292 32.8713 16.2292 33.6862 15.7936C33.8254 15.7189 34.0007 15.7683 34.0772 15.904C34.154 16.0397 34.1032 16.2103 33.9637 16.2847C33.4694 16.5492 32.9269 16.6813 32.3849 16.6813Z" fill="#BF8E75"/>
<path d="M31.0057 13.2113C31.0057 13.606 30.6768 13.9259 30.2709 13.9259C29.8652 13.9259 29.5364 13.606 29.5364 13.2113C29.5364 12.8163 29.8652 12.4963 30.2709 12.4963C30.6768 12.4963 31.0057 12.8163 31.0057 13.2113Z" fill="#3D4159"/>
<path d="M35.2332 13.2113C35.2332 13.606 34.9044 13.9259 34.4987 13.9259C34.0928 13.9259 33.7639 13.606 33.7639 13.2113C33.7639 12.8163 34.0928 12.4963 34.4987 12.4963C34.9044 12.4963 35.2332 12.8163 35.2332 13.2113Z" fill="#3D4159"/>
<path d="M30.8558 13.0849C30.8558 13.2541 30.715 13.3914 30.5411 13.3914C30.3672 13.3914 30.2263 13.2541 30.2263 13.0849C30.2263 12.916 30.3672 12.7787 30.5411 12.7787C30.715 12.7787 30.8558 12.916 30.8558 13.0849Z" fill="white"/>
<path d="M35.1195 13.0849C35.1195 13.2541 34.9786 13.3914 34.8047 13.3914C34.6309 13.3914 34.49 13.2541 34.49 13.0849C34.49 12.916 34.6309 12.7787 34.8047 12.7787C34.9786 12.7787 35.1195 12.916 35.1195 13.0849Z" fill="white"/>
<path d="M33.1193 15.0109H31.65C31.475 15.0109 31.333 14.8727 31.333 14.7025C31.333 14.5322 31.475 14.3943 31.65 14.3943H33.1193C33.2943 14.3943 33.4363 14.5322 33.4363 14.7025C33.4361 14.8727 33.2943 15.0109 33.1193 15.0109Z" fill="#BF8E75"/>
<path d="M34.5171 25.0432H37.3402V25.8839H34.5171V25.0432Z" fill="#BFD5DE"/>
<path d="M32.0059 5.47696C33.9678 5.61319 35.5429 7.15512 35.6426 9.09613L35.6612 9.4606H36.7898L37.3976 13.3932L38.8697 12.9499L38.6721 9.0964C38.5676 7.05734 36.8344 5.45938 34.737 5.46707L32.0059 5.47696Z" fill="#2A2F4F"/>
<path d="M38.5472 3.95581C40.1094 5.47577 40.1094 7.94028 38.5472 9.46024C36.985 10.9802 34.4521 10.9802 32.8899 9.46024L38.5472 3.95581Z" fill="#3D4159"/>
<path d="M32.8899 9.46023H27.9803L27.3723 13.3931L25.9001 12.9498L26.0975 9.09604C26.2019 7.05752 27.9352 5.45901 30.0328 5.4667L37.1236 5.49279L38.0611 7.13443" fill="#3D4159"/>
<path d="M32.7637 5.47696C30.8018 5.61319 29.2267 7.15512 29.127 9.09613L29.1084 9.4606H27.9801L27.372 13.3932L25.8999 12.9499L26.0975 9.0964C26.202 7.05734 27.9352 5.45938 30.0326 5.46707L32.7637 5.47696Z" fill="#2A2F4F"/>
<path d="M30.3417 34.9584V36.308C27.9608 37.3932 25.3037 37.9999 22.5 37.9999C19.6963 37.9999 17.0383 37.3932 14.6575 36.3072V34.9584C14.6575 32.295 16.5158 30.0549 19.04 29.3982C19.1323 29.374 19.2252 29.3518 19.3195 29.332C19.5701 29.279 19.8276 29.2425 20.089 29.2219C20.249 29.2092 20.4099 29.2026 20.5731 29.2026H24.4255C24.8565 29.2026 25.2757 29.2469 25.6805 29.332C25.7039 29.3364 25.7274 29.3416 25.75 29.3468C25.818 29.3622 25.8857 29.3784 25.9529 29.396C25.9555 29.3965 25.956 29.3965 25.9583 29.3974C26.6245 29.5707 27.2444 29.8544 27.7949 30.2268C29.3344 31.2659 30.3417 32.9973 30.3417 34.9584Z" fill="#3D4159"/>
<path d="M25.9727 29.332L25.9583 29.3974L24.0715 37.9354C23.9738 37.9434 23.8759 37.9508 23.7776 37.9574C23.6393 37.9662 23.5004 37.9742 23.3607 37.9802C23.0753 37.9934 22.7885 38 22.5 38C22.2039 38 21.9103 37.9934 21.6181 37.9794C21.486 37.9736 21.3536 37.9662 21.2215 37.9566C21.1227 37.95 21.0245 37.9434 20.9262 37.9354L19.04 29.3982L19.0259 29.332H25.9727Z" fill="#66BAED"/>
<path d="M24.0876 31.2797L22.4995 33.7576L20.9116 31.2797" fill="#3D4159"/>
<path d="M23.7775 37.9575C23.6392 37.9663 23.5003 37.9742 23.3606 37.9803C23.0752 37.9935 22.7884 38.0001 22.4999 38.0001C22.2038 38.0001 21.9102 37.9935 21.618 37.9795C21.4859 37.9737 21.3535 37.9663 21.2214 37.9567L22.4999 33.1128L23.7775 37.9575Z" fill="#3D4159"/>
<path d="M22.4992 31.5591L19.8358 32.9991L19.0256 29.3327L20.6804 28.3843" fill="#2BA1CF"/>
<path d="M22.4993 31.5591L25.1624 32.9991L25.9725 29.3327L24.3178 28.3843" fill="#2BA1CF"/>
<path d="M26.0731 34.2803H26.918L25.4425 37.7728C24.7599 37.8794 24.0652 37.9492 23.3606 37.9802L25.9528 29.396L25.9726 29.332L27.7948 29.911L26.0731 34.2803Z" fill="#2A2F4F"/>
<path d="M21.6181 37.9794C20.9127 37.9478 20.2174 37.8766 19.5348 37.7693L18.0607 34.2803H18.9056L17.1833 29.911L19.0061 29.332L19.0258 29.396L21.6181 37.9794Z" fill="#2A2F4F"/>
<path d="M24.61 26.9856V29.5056C24.61 30.4284 23.9847 31.2082 23.1235 31.4672C22.9262 31.5268 22.7161 31.5589 22.4988 31.5589C21.3332 31.5589 20.3887 30.6396 20.3887 29.5056V26.9856H24.61Z" fill="#EAB599"/>
<path d="M24.6101 29.3461V29.5059C24.6101 30.4285 23.9849 31.2083 23.1236 31.4675C22.3465 31.2349 21.7621 30.5776 21.6543 29.7732C21.7954 29.7817 21.9371 29.7858 22.0794 29.7858C22.4789 29.7858 22.8704 29.755 23.2515 29.6943C23.7215 29.6207 24.1754 29.5029 24.6101 29.3461Z" fill="#F6CAAE"/>
<path d="M16.7097 22.8553C16.7097 23.8059 15.9958 24.5941 15.0611 24.7405C14.959 24.7565 14.854 24.765 14.747 24.765C13.6627 24.765 12.7839 23.9102 12.7839 22.8553C12.7839 21.8003 13.6624 20.9453 14.747 20.9453C14.854 20.9453 14.959 20.9538 15.0611 20.97C15.9958 21.1164 16.7097 21.9047 16.7097 22.8553Z" fill="#F6CAAE"/>
<path d="M16.7096 22.8553C16.7096 23.8059 15.9957 24.5942 15.0611 24.7406C14.8914 24.1399 14.8008 23.5077 14.8008 22.8553C14.8008 22.2028 14.8914 21.5708 15.0611 20.9701C15.9957 21.1165 16.7096 21.9048 16.7096 22.8553Z" fill="#EAB599"/>
<path d="M15.4484 22.8554C15.4484 23.2322 15.1342 23.5379 14.7469 23.5379C14.3593 23.5379 14.0454 23.2322 14.0454 22.8554C14.0454 22.4783 14.3593 22.1729 14.7469 22.1729C15.1342 22.1729 15.4484 22.4783 15.4484 22.8554Z" fill="#EAB599"/>
<path d="M28.2888 22.8553C28.2888 23.8059 29.0027 24.5941 29.9374 24.7405C30.0393 24.7565 30.1446 24.765 30.2516 24.765C31.3358 24.765 32.2146 23.9102 32.2146 22.8553C32.2146 21.8003 31.3361 20.9453 30.2516 20.9453C30.1446 20.9453 30.0393 20.9538 29.9374 20.97C29.0027 21.1164 28.2888 21.9047 28.2888 22.8553Z" fill="#F6CAAE"/>
<path d="M28.2888 22.8553C28.2888 23.8059 29.0027 24.5942 29.9374 24.7406C30.107 24.1399 30.1976 23.5077 30.1976 22.8553C30.1976 22.2028 30.107 21.5708 29.9374 20.9701C29.0027 21.1165 28.2888 21.9048 28.2888 22.8553Z" fill="#EAB599"/>
<path d="M29.8023 19.1349V21.8405C29.8023 25.3765 27.1474 28.3095 23.6713 28.8539C23.6597 28.8558 23.6473 28.8578 23.6357 28.8597C23.2659 28.9174 22.8865 28.9456 22.4992 28.9456C18.4662 28.9456 15.197 25.7646 15.197 21.8408V19.1349C15.197 18.3087 15.3418 17.5146 15.6094 16.7769C16.6082 14.0117 19.3162 12.0292 22.4992 12.0292H22.4998C22.8865 12.0292 23.2665 12.0583 23.6369 12.1151C27.1299 12.6461 29.8023 15.5871 29.8023 19.1349Z" fill="#EAB599"/>
<path d="M30.953 22.8554C30.953 23.2322 30.6391 23.5379 30.2515 23.5379C29.8642 23.5379 29.55 23.2322 29.55 22.8554C29.55 22.4783 29.8642 22.1729 30.2515 22.1729C30.6391 22.1729 30.953 22.4783 30.953 22.8554Z" fill="#EAB599"/>
<path d="M29.8019 19.1348V21.8405C29.8019 25.3762 27.1472 28.3095 23.6712 28.8539C23.6593 28.8558 23.6472 28.8577 23.6353 28.8596C20.1426 28.3285 17.4707 25.3877 17.4707 21.8405V19.1348C17.4707 15.5871 20.1431 12.646 23.6367 12.1151C27.1297 12.646 29.8019 15.5871 29.8019 19.1348Z" fill="#F6CAAE"/>
<path d="M20.9441 21.4266C20.9441 21.8718 20.5732 22.2327 20.1159 22.2327C19.6583 22.2327 19.2874 21.8718 19.2874 21.4266C19.2874 20.9816 19.6583 20.6207 20.1159 20.6207C20.5732 20.6207 20.9441 20.9816 20.9441 21.4266Z" fill="#3D4159"/>
<path d="M25.7115 21.4266C25.7115 21.8718 25.3405 22.2327 24.883 22.2327C24.4254 22.2327 24.0544 21.8718 24.0544 21.4266C24.0544 20.9816 24.4254 20.6207 24.883 20.6207C25.3405 20.6207 25.7115 20.9816 25.7115 21.4266Z" fill="#3D4159"/>
<path d="M20.7751 21.2846C20.7751 21.4752 20.6162 21.6299 20.42 21.6299C20.2241 21.6299 20.0652 21.4752 20.0652 21.2846C20.0652 21.0937 20.2241 20.9391 20.42 20.9391C20.6162 20.9391 20.7751 21.0937 20.7751 21.2846Z" fill="white"/>
<path d="M25.5832 21.2846C25.5832 21.4752 25.4243 21.6299 25.2284 21.6299C25.0322 21.6299 24.8733 21.4752 24.8733 21.2846C24.8733 21.0937 25.0322 20.9391 25.2284 20.9391C25.4243 20.9391 25.5832 21.0937 25.5832 21.2846Z" fill="white"/>
<path d="M23.3279 23.1401H21.6709C21.4735 23.1401 21.3135 22.9844 21.3135 22.7924C21.3135 22.6002 21.4735 22.4447 21.6709 22.4447H23.3279C23.5252 22.4447 23.6853 22.6002 23.6853 22.7924C23.685 22.9844 23.5249 23.1401 23.3279 23.1401Z" fill="#EAB599"/>
<path d="M22.4994 25.3399C21.888 25.3399 21.2763 25.1907 20.719 24.8924C20.5618 24.8084 20.5042 24.6161 20.5909 24.4634C20.6773 24.3104 20.8749 24.2547 21.0321 24.3384C21.9509 24.8301 23.0479 24.8301 23.9668 24.3384C24.124 24.2544 24.3216 24.3102 24.408 24.4634C24.4946 24.6161 24.437 24.8084 24.2798 24.8924C23.7223 25.1907 23.1109 25.3399 22.4994 25.3399Z" fill="#EAB599"/>
<path d="M29.8023 16.6794V19.4509H28.4431V17.2803L18.6319 15.5066L16.556 15.1311V19.4509H15.1968V16.6791C15.1968 13.5194 17.8288 10.9585 21.0757 10.9585H23.9234C24.0008 10.9585 24.0781 10.9599 24.1555 10.9637C27.2942 11.0813 29.8023 13.5949 29.8023 16.6794Z" fill="#2A2F4F"/>
<path d="M29.8022 16.6794V19.451H28.443V17.2803L18.6318 15.5066C19.1724 12.9803 21.4251 11.0662 24.1554 10.9637C27.2941 11.0813 29.8022 13.595 29.8022 16.6794Z" fill="#3D4159"/>
</g>
<defs>
<filter id="filter0_d" x="0" y="0" width="45" height="44" filterUnits="userSpaceOnUse" color-interpolation-filters="sRGB">
<feFlood flood-opacity="0" result="BackgroundImageFix"/>
<feColorMatrix in="SourceAlpha" type="matrix" values="0 0 0 0 0 0 0 0 0 0 0 0 0 0 0 0 0 0 127 0"/>
<feOffset dy="2"/>
<feGaussianBlur stdDeviation="2"/>
<feColorMatrix type="matrix" values="0 0 0 0 0 0 0 0 0 0 0 0 0 0 0 0 0 0 0.25 0"/>
<feBlend mode="normal" in2="BackgroundImageFix" result="effect1_dropShadow"/>
<feBlend mode="normal" in="SourceGraphic" in2="effect1_dropShadow" result="shape"/>
</filter>
<clipPath id="clip0">
<rect width="37" height="36" fill="white" transform="translate(4 2)"/>
</clipPath>
</defs>
</svg>
